<?xml version="1.0" encoding="utf-8"?>
<svg xmlns="http://www.w3.org/2000/svg" width="607" height="438" version="1.1">
  <g transform="translate(303.5,219) scale(0.85)">
    <defs>
      <linearGradient id="asterPlotGradient">
        <stop class="stop-left" offset="0" />
        <stop class="stop-right" offset="1" />
      </linearGradient>
    </defs>
    <path fill="#5a5898" stroke="white" d="M1.3409882450663518e-14,-219A219,219 0 0,1 35.130070507849496,-216.1640075177029L10.539021152354849,-64.84920225531087A65.7,65.7 0 0,0 4.022964735199056e-15,-65.7Z" />
    <path fill="#5a5898" stroke="white" d="M34.465447552295586,-212.07441818628695A214.8567567567568,214.8567567567568 0 0,1 68.03825811685313,-203.79946358235742L20.80508719275674,-62.318844235927465A65.7,65.7 0 0,0 10.539021152354849,-64.84920225531087Z" />
    <path fill="#eab200" stroke="white" d="M66.72622559118378,-199.8694463782899A210.71351351351353,210.71351351351353 0 0,1 97.92345239248752,-186.57755022709964L30.5323124032756,-58.1744608854159A65.7,65.7 0 0,0 20.80508719275674,-62.318844235927465Z" />
    <path fill="#5a5898" stroke="white" d="M95.03526067866414,-181.0745606838846A204.49864864864867,204.49864864864867 0 0,1 122.85098122279611,-163.48496478795735L39.468766760435216,-52.52338955561003A65.7,65.7 0 0,0 30.5323124032756,-58.1744608854159Z" />
    <path fill="#5a5898" stroke="white" d="M121.6064705591788,-161.82882187404175A202.42702702702707,202.42702702702707 0 0,1 145.99086730042438,-140.22613143016756L47.38300079048861,-45.51199002558069A65.7,65.7 0 0,0 39.468766760435216,-52.52338955561003Z" />
    <path fill="#5a5898" stroke="white" d="M144.49680871694048,-138.79106868161318A200.3554054054054,200.3554054054054 0 0,1 164.88926609323133,-113.8148426278397L54.07003998921323,-37.32185386023695A65.7,65.7 0 0,0 47.38300079048861,-45.51199002558069Z" />
    <path fill="#5a5898" stroke="white" d="M161.4794437515692,-111.46121220422113A196.21216216216214,196.21216216216214 0 0,1 177.26796318124818,-84.11469437572875L59.35669355390211,-28.165101284180672A65.7,65.7 0 0,0 54.07003998921323,-37.32185386023695Z" />
    <path fill="#817dc0" stroke="white" d="M169.7815333636389,-80.56233925880507A187.92567567567568,187.92567567567568 0 0,1 180.5060151270497,-52.28420489127233L63.10603993418116,-18.27888737931096A65.7,65.7 0 0,0 59.35669355390211,-28.165101284180672Z" />
    <path fill="#817dc0" stroke="white" d="M180.5060151270497,-52.28420489127233A187.92567567567568,187.92567567567568 0 0,1 186.55548591411605,-22.651937080684526L65.22097302824214,-7.919259892774748A65.7,65.7 0 0,0 63.10603993418116,-18.27888737931096Z" />
    <path fill="#817dc0" stroke="white" d="M182.4424515790017,-22.152524294653684A183.78243243243244,183.78243243243244 0 0,1 183.63338454369637,7.400172417486886L65.64671717987213,2.6454722651885487A65.7,65.7 0 0,0 65.22097302824214,-7.919259892774748Z" />
    <path fill="#817dc0" stroke="white" d="M183.63338454369637,7.400172417486886A183.78243243243244,183.78243243243244 0 0,1 180.06830930688702,36.76120855114622L64.372245839177,13.14168808108609A65.7,65.7 0 0,0 65.64671717987213,2.6454722651885487Z" />
    <path fill="#817dc0" stroke="white" d="M180.06830930688702,36.76120855114622A183.78243243243244,183.78243243243244 0 0,1 171.83955944455914,65.17014869310505L61.43056714443177,23.297541078694557A65.7,65.7 0 0,0 64.372245839177,13.14168808108609Z" />
    <path fill="#817dc0" stroke="white" d="M171.83955944455914,65.17014869310505A183.78243243243244,183.78243243243244 0 0,1 159.16025525578368,91.89121621621612L56.89786902863764,32.849999999999966A65.7,65.7 0 0,0 61.43056714443177,23.297541078694557Z" />
    <path fill="#817dc0" stroke="white" d="M155.5721013530768,89.8195945945945A179.6391891891892,179.6391891891892 0 0,1 139.1494072846428,113.61197447840573L50.89154599207693,41.55166117661626A65.7,65.7 0 0,0 56.89786902863764,32.849999999999966Z" />
    <path fill="#817dc0" stroke="white" d="M137.54471889750522,112.30178696382774A177.56756756756758,177.56756756756758 0 0,1 117.74907742275747,132.91123285092252L43.56715864642026,49.17715615484133A65.7,65.7 0 0,0 50.89154599207693,41.55166117661626Z" />
    <path fill="#817dc0" stroke="white" d="M117.74907742275747,132.91123285092252A177.56756756756758,177.56756756756758 0 0,1 94.90379669350418,150.07834762223598L35.114404776596544,55.52898862022732A65.7,65.7 0 0,0 43.56715864642026,49.17715615484133Z" />
    <path fill="#817dc0" stroke="white" d="M94.90379669350418,150.07834762223598A177.56756756756758,177.56756756756758 0 0,1 69.60055748055929,163.3585120226615L25.752206267806933,60.442649448384756A65.7,65.7 0 0,0 35.114404776596544,55.52898862022732Z" />
    <path fill="#817dc0" stroke="white" d="M69.60055748055929,163.3585120226615A177.56756756756758,177.56756756756758 0 0,1 42.49470038835821,172.40777676997735L15.723039143692537,63.79087740489162A65.7,65.7 0 0,0 25.752206267806933,60.442649448384756Z" />
    <path fill="#817dc0" stroke="white" d="M41.50315737929652,168.38492864534456A173.42432432432435,173.42432432432435 0 0,1 13.954860310394947,172.86196267850775L5.28665356468887,65.4869551444176A65.7,65.7 0 0,0 15.723039143692537,63.79087740489162Z" />
    <path fill="#817dc0" stroke="white" d="M13.954860310394947,172.86196267850775A173.42432432432435,173.42432432432435 0 0,1 -13.954860310395079,172.86196267850772L-5.28665356468892,65.48695514441759A65.7,65.7 0 0,0 5.28665356468887,65.4869551444176Z" />
    <path fill="#817dc0" stroke="white" d="M-13.788164026823804,170.79705868746748A171.3527027027027,171.3527027027027 0 0,1 -41.00738587476579,166.3735045830281L-15.723039143692585,63.79087740489161A65.7,65.7 0 0,0 -5.28665356468892,65.48695514441759Z" />
    <path fill="#817dc0" stroke="white" d="M-41.00738587476579,166.3735045830281A171.3527027027027,171.3527027027027 0 0,1 -67.16453796873981,157.64096410186826L-25.75220626780698,60.442649448384735A65.7,65.7 0 0,0 -15.723039143692585,63.79087740489161Z" />
    <path fill="#817dc0" stroke="white" d="M-66.35253146479997,155.73511479493723A169.28108108108108,169.28108108108108 0 0,1 -90.47495284780742,143.0746913998649L-35.11440477659659,55.52898862022729A65.7,65.7 0 0,0 -25.75220626780698,60.442649448384735Z" />
    <path fill="#817dc0" stroke="white" d="M-89.36774188638321,141.32377734427214A167.20945945945948,167.20945945945948 0 0,1 -110.88038123976338,125.1580776012853L-43.567158646420296,49.1771561548413A65.7,65.7 0 0,0 -35.11440477659659,55.52898862022729Z" />
    <path fill="#817dc0" stroke="white" d="M-109.50664200316453,123.60744655135787A165.13783783783785,165.13783783783785 0 0,1 -127.91658857467993,104.4406618763597L-50.89154599207696,41.55166117661622A65.7,65.7 0 0,0 -43.567158646420296,49.1771561548413Z" />
    <path fill="#817dc0" stroke="white" d="M-123.10252341326725,100.51009933262573A158.92297297297299,158.92297297297299 0 0,1 -137.63133183954247,79.4614864864863L-56.89786902863767,32.84999999999992A65.7,65.7 0 0,0 -50.89154599207696,41.55166117661622Z" />
    <path fill="#817dc0" stroke="white" d="M-135.83725488818902,78.42567567567549A156.85135135135135,156.85135135135135 0 0,1 -146.6585612006705,55.62025572841479L-61.43056714443179,23.297541078694497A65.7,65.7 0 0,0 -56.89786902863767,32.84999999999992Z" />
    <path fill="#817dc0" stroke="white" d="M-144.721561335756,54.88564857728479A154.77972972972975,154.77972972972975 0 0,1 -151.65173231481793,30.95992282165759L-64.37224583917701,13.141688081086011A65.7,65.7 0 0,0 -61.43056714443179,23.297541078694497Z" />
    <path fill="#aaa4ea" stroke="white" d="M-141.50295481765036,28.888035061126008A144.42162162162163,144.42162162162163 0 0,1 -144.3044954224216,5.815272366720566L-65.64671717987213,2.645472265188454A65.7,65.7 0 0,0 -64.37224583917701,13.141688081086011Z" />
    <path fill="#aaa4ea" stroke="white" d="M-144.3044954224216,5.815272366720566A144.42162162162163,144.42162162162163 0 0,1 -143.36862539541514,-17.408102827360942L-65.22097302824213,-7.919259892774855A65.7,65.7 0 0,0 -65.64671717987213,2.645472265188454Z" />
    <path fill="#aaa4ea" stroke="white" d="M-141.31210822785798,-17.15839643434552A142.35000000000002,142.35000000000002 0 0,1 -136.72975319072577,-39.60425598850733L-63.10603993418112,-18.278887379311072A65.7,65.7 0 0,0 -65.22097302824213,-7.919259892774855Z" />
    <path fill="#aaa4ea" stroke="white" d="M-128.7704328386669,-37.298810733459085A134.06351351351353,134.06351351351353 0 0,1 -121.11973954917853,-57.472030998801365L-59.356693553902055,-28.1651012841808A65.7,65.7 0 0,0 -63.10603993418112,-18.278887379311072Z" />
    <path fill="#aaa4ea" stroke="white" d="M-117.3765246403739,-55.69585344033951A129.9202702702703,129.9202702702703 0 0,1 -106.92228628497554,-73.80312542632467L-54.070039989213136,-37.32185386023707A65.7,65.7 0 0,0 -59.356693553902055,-28.1651012841808Z" />
    <path fill="#aaa4ea" stroke="white" d="M-106.92228628497554,-73.80312542632467A129.9202702702703,129.9202702702703 0 0,1 -93.69881687848854,-89.99893523076565L-47.3830007904885,-45.51199002558081A65.7,65.7 0 0,0 -54.070039989213136,-37.32185386023707Z" />
    <path fill="#aaa4ea" stroke="white" d="M-93.69881687848854,-89.99893523076565A129.9202702702703,129.9202702702703 0 0,1 -78.04859733257207,-103.86381988699483L-39.468766760435074,-52.52338955561014A65.7,65.7 0 0,0 -47.3830007904885,-45.51199002558081Z" />
    <path fill="#aaa4ea" stroke="white" d="M-76.80408666895474,-102.2076769730792A127.84864864864866,127.84864864864866 0 0,1 -59.41422954150894,-113.20435631756624L-30.532312403275423,-58.17446088541598A65.7,65.7 0 0,0 -39.468766760435074,-52.52338955561014Z" />
    <path fill="#aaa4ea" stroke="white" d="M-57.48876839896003,-109.53569662208956A123.70540540540541,123.70540540540541 0 0,1 -39.1735425521272,-117.33908509287255L-20.805087192756552,-62.31884423592753A65.7,65.7 0 0,0 -30.532312403275423,-58.17446088541598Z" />
    <path fill="#aaa4ea" stroke="white" d="M-35.89346123795387,-107.5140420827038A113.3472972972973,113.3472972972973 0 0,1 -18.182185141224448,-111.87947956659495L-10.53902115235464,-64.84920225531091A65.7,65.7 0 0,0 -20.805087192756552,-62.31884423592753Z" />
    <path fill="#d4cdff" stroke="white" d="M-16.852939230116654,-103.70030090376294A105.0608108108108,105.0608108108108 0 0,1 3.539516218221463e-13,-105.0608108108108L2.2134439449159575e-13,-65.7A65.7,65.7 0 0,0 -10.53902115235464,-64.84920225531091Z" />
    <path fill="none" stroke="white" class="outlineArc" d="M1.3409882450663518e-14,-219A219,219 0 0,1 35.130070507849496,-216.1640075177029L10.539021152354849,-64.84920225531087A65.7,65.7 0 0,0 4.022964735199056e-15,-65.7Z" />
    <path fill="none" stroke="white" class="outlineArc" d="M35.130070507849496,-216.1640075177029A219,219 0 0,1 69.35029064252247,-207.7294807864249L20.80508719275674,-62.318844235927465A65.7,65.7 0 0,0 10.539021152354849,-64.84920225531087Z" />
    <path fill="none" stroke="white" class="outlineArc" d="M69.35029064252247,-207.7294807864249A219,219 0 0,1 101.77437467758533,-193.91486961805296L30.5323124032756,-58.1744608854159A65.7,65.7 0 0,0 20.80508719275674,-62.318844235927465Z" />
    <path fill="none" stroke="white" class="outlineArc" d="M101.77437467758533,-193.91486961805296A219,219 0 0,1 131.56255586811739,-175.07796518536676L39.468766760435216,-52.52338955561003A65.7,65.7 0 0,0 30.5323124032756,-58.1744608854159Z" />
    <path fill="none" stroke="white" class="outlineArc" d="M131.56255586811739,-175.07796518536676A219,219 0 0,1 157.94333596829537,-151.70663341860228L47.38300079048861,-45.51199002558069A65.7,65.7 0 0,0 39.468766760435216,-52.52338955561003Z" />
    <path fill="none" stroke="white" class="outlineArc" d="M157.94333596829537,-151.70663341860228A219,219 0 0,1 180.23346663071075,-124.40617953412314L54.07003998921323,-37.32185386023695A65.7,65.7 0 0,0 47.38300079048861,-45.51199002558069Z" />
    <path fill="none" stroke="white" class="outlineArc" d="M180.23346663071075,-124.40617953412314A219,219 0 0,1 197.8556451796737,-93.8836709472689L59.35669355390211,-28.165101284180672A65.7,65.7 0 0,0 54.07003998921323,-37.32185386023695Z" />
    <path fill="none" stroke="white" class="outlineArc" d="M197.8556451796737,-93.8836709472689A219,219 0 0,1 210.35346644727053,-60.92962459770319L63.10603993418116,-18.27888737931096A65.7,65.7 0 0,0 59.35669355390211,-28.165101284180672Z" />
    <path fill="none" stroke="white" class="outlineArc" d="M210.35346644727053,-60.92962459770319A219,219 0 0,1 217.40324342747383,-26.397532975915823L65.22097302824214,-7.919259892774748A65.7,65.7 0 0,0 63.10603993418116,-18.27888737931096Z" />
    <path fill="none" stroke="white" class="outlineArc" d="M217.40324342747383,-26.397532975915823A219,219 0 0,1 218.82239059957377,8.818240883961828L65.64671717987213,2.6454722651885487A65.7,65.7 0 0,0 65.22097302824214,-7.919259892774748Z" />
    <path fill="none" stroke="white" class="outlineArc" d="M218.82239059957377,8.818240883961828A219,219 0 0,1 214.57415279725666,43.80562693695363L64.372245839177,13.14168808108609A65.7,65.7 0 0,0 65.64671717987213,2.6454722651885487Z" />
    <path fill="none" stroke="white" class="outlineArc" d="M214.57415279725666,43.80562693695363A219,219 0 0,1 204.76855714810588,77.65847026231519L61.43056714443177,23.297541078694557A65.7,65.7 0 0,0 64.372245839177,13.14168808108609Z" />
    <path fill="none" stroke="white" class="outlineArc" d="M204.76855714810588,77.65847026231519A219,219 0 0,1 189.65956342879213,109.49999999999987L56.89786902863764,32.849999999999966A65.7,65.7 0 0,0 61.43056714443177,23.297541078694557Z" />
    <path fill="none" stroke="white" class="outlineArc" d="M189.65956342879213,109.49999999999987A219,219 0 0,1 169.63848664025642,138.50553725538754L50.89154599207693,41.55166117661626A65.7,65.7 0 0,0 56.89786902863764,32.849999999999966Z" />
    <path fill="none" stroke="white" class="outlineArc" d="M169.63848664025642,138.50553725538754A219,219 0 0,1 145.2238621547342,163.9238538494711L43.56715864642026,49.17715615484133A65.7,65.7 0 0,0 50.89154599207693,41.55166117661626Z" />
    <path fill="none" stroke="white" class="outlineArc" d="M145.2238621547342,163.9238538494711A219,219 0 0,1 117.04801592198848,185.09662873409104L35.114404776596544,55.52898862022732A65.7,65.7 0 0,0 43.56715864642026,49.17715615484133Z" />
    <path fill="none" stroke="white" class="outlineArc" d="M117.04801592198848,185.09662873409104A219,219 0 0,1 85.84068755935644,201.4754981612825L25.752206267806933,60.442649448384756A65.7,65.7 0 0,0 35.114404776596544,55.52898862022732Z" />
    <path fill="none" stroke="white" class="outlineArc" d="M85.84068755935644,201.4754981612825A219,219 0 0,1 52.41013047897512,212.6362580163054L15.723039143692537,63.79087740489162A65.7,65.7 0 0,0 25.752206267806933,60.442649448384756Z" />
    <path fill="none" stroke="white" class="outlineArc" d="M52.41013047897512,212.6362580163054A219,219 0 0,1 17.6221785489629,218.289850481392L5.28665356468887,65.4869551444176A65.7,65.7 0 0,0 15.723039143692537,63.79087740489162Z" />
    <path fill="none" stroke="white" class="outlineArc" d="M17.6221785489629,218.289850481392A219,219 0 0,1 -17.622178548963067,218.28985048139197L-5.28665356468892,65.48695514441759A65.7,65.7 0 0,0 5.28665356468887,65.4869551444176Z" />
    <path fill="none" stroke="white" class="outlineArc" d="M-17.622178548963067,218.28985048139197A219,219 0 0,1 -52.410130478975276,212.63625801630536L-15.723039143692585,63.79087740489161A65.7,65.7 0 0,0 -5.28665356468892,65.48695514441759Z" />
    <path fill="none" stroke="white" class="outlineArc" d="M-52.410130478975276,212.63625801630536A219,219 0 0,1 -85.8406875593566,201.47549816128245L-25.75220626780698,60.442649448384735A65.7,65.7 0 0,0 -15.723039143692585,63.79087740489161Z" />
    <path fill="none" stroke="white" class="outlineArc" d="M-85.8406875593566,201.47549816128245A219,219 0 0,1 -117.04801592198862,185.09662873409096L-35.11440477659659,55.52898862022729A65.7,65.7 0 0,0 -25.75220626780698,60.442649448384735Z" />
    <path fill="none" stroke="white" class="outlineArc" d="M-117.04801592198862,185.09662873409096A219,219 0 0,1 -145.22386215473432,163.923853849471L-43.567158646420296,49.1771561548413A65.7,65.7 0 0,0 -35.11440477659659,55.52898862022729Z" />
    <path fill="none" stroke="white" class="outlineArc" d="M-145.22386215473432,163.923853849471A219,219 0 0,1 -169.63848664025653,138.5055372553874L-50.89154599207696,41.55166117661622A65.7,65.7 0 0,0 -43.567158646420296,49.1771561548413Z" />
    <path fill="none" stroke="white" class="outlineArc" d="M-169.63848664025653,138.5055372553874A219,219 0 0,1 -189.6595634287922,109.49999999999973L-56.89786902863767,32.84999999999992A65.7,65.7 0 0,0 -50.89154599207696,41.55166117661622Z" />
    <path fill="none" stroke="white" class="outlineArc" d="M-189.6595634287922,109.49999999999973A219,219 0 0,1 -204.76855714810597,77.65847026231498L-61.43056714443179,23.297541078694497A65.7,65.7 0 0,0 -56.89786902863767,32.84999999999992Z" />
    <path fill="none" stroke="white" class="outlineArc" d="M-204.76855714810597,77.65847026231498A219,219 0 0,1 -214.5741527972567,43.805626936953374L-64.37224583917701,13.141688081086011A65.7,65.7 0 0,0 -61.43056714443179,23.297541078694497Z" />
    <path fill="none" stroke="white" class="outlineArc" d="M-214.5741527972567,43.805626936953374A219,219 0 0,1 -218.82239059957377,8.818240883961513L-65.64671717987213,2.645472265188454A65.7,65.7 0 0,0 -64.37224583917701,13.141688081086011Z" />
    <path fill="none" stroke="white" class="outlineArc" d="M-218.82239059957377,8.818240883961513A219,219 0 0,1 -217.40324342747377,-26.39753297591618L-65.22097302824213,-7.919259892774855A65.7,65.7 0 0,0 -65.64671717987213,2.645472265188454Z" />
    <path fill="none" stroke="white" class="outlineArc" d="M-217.40324342747377,-26.39753297591618A219,219 0 0,1 -210.3534664472704,-60.92962459770358L-63.10603993418112,-18.278887379311072A65.7,65.7 0 0,0 -65.22097302824213,-7.919259892774855Z" />
    <circle cx="0" cy="0" r="65.7" style="fill: transparent;" />
    <text class="aster-score" dy=".2em" text-anchor="middle" style="display: block; margin: 0 auto;">49</text>
    <text class="aster-score-text" dy="2em" text-anchor="middle" style="display: block; margin: 0 auto;">Average</text>
  </g>
</svg>
